HIERARCHY
ROOT Hip
{
	OFFSET 0 1.131 0.0052
	CHANNELS 6 Xposition Yposition Zposition Xrotation Yrotation Zrotation
	JOINT Abdomen
	{
		OFFSET 0 -0.047353 -0.05
		CHANNELS 3 Xrotation Zrotation Yrotation
		JOINT Chest
		{
			OFFSET 0 0.132153 0.007439
			CHANNELS 3 Xrotation Zrotation Yrotation
			JOINT Neck
			{
				OFFSET 0 0.3078 0.006161
				CHANNELS 3 Xrotation Zrotation Yrotation
				JOINT Head_comp
				{
					OFFSET 0 0.0884 0.013
					CHANNELS 3 Xrotation Yrotation Zrotation
					End Site
					{
						OFFSET -0 0.156 0.0624
					}
				}
			}
			JOINT Left_Collar
			{
				OFFSET 0.02282 0.250342 0.017193
				CHANNELS 2 Yrotation Zrotation
				JOINT Left_Shoulder
				{
					OFFSET 0.15421 0 0
					CHANNELS 3 Xrotation Yrotation Zrotation
					JOINT Left_Forearm
					{
						OFFSET 0.265212 0 0
						CHANNELS 2 Yrotation Xrotation
						JOINT Left_Hand
						{
							OFFSET 0.27571 0 0
							CHANNELS 2 Zrotation Yrotation
							JOINT L1ProxPhalanx
							{
								OFFSET 0.014142 0.001733 0.014142
								CHANNELS 3 Yrotation Zrotation Xrotation
								JOINT L1MidPhalanx
								{
									OFFSET 0.04 0 0
									CHANNELS 1 Zrotation
									JOINT L1DistPhalanx
									{
										OFFSET 0.035 0 0
										CHANNELS 1 Zrotation
										End Site
										{
											OFFSET 0.029 -0 -0
										}
									}
								}
							}
							JOINT L2ProxPhalanx
							{
								OFFSET 0.0821037 0.001578 0.0219996
								CHANNELS 2 Yrotation Zrotation
								JOINT L2MidPhalanx
								{
									OFFSET 0.04 0 0
									CHANNELS 1 Zrotation
									JOINT L2DistPhalanx
									{
										OFFSET 0.028 0 0
										CHANNELS 1 Zrotation
										End Site
										{
											OFFSET 0.02 -0 -0
										}
									}
								}
							}
							JOINT L3ProxPhalanx
							{
								OFFSET 0.083 0 0
								CHANNELS 2 Yrotation Zrotation
								JOINT L3MidPhalanx
								{
									OFFSET 0.053 0 0
									CHANNELS 1 Zrotation
									JOINT L3DistPhalanx
									{
										OFFSET 0.03 0 0
										CHANNELS 1 Zrotation
										End Site
										{
											OFFSET 0.023 -0 -0
										}
									}
								}
							}
							JOINT L4ProxPhalanx
							{
								OFFSET 0.077274 -0.000761 -0.0207055
								CHANNELS 2 Yrotation Zrotation
								JOINT L4MidPhalanx
								{
									OFFSET 0.05 0 0
									CHANNELS 1 Zrotation
									JOINT L4DistPhalanx
									{
										OFFSET 0.03 0 0
										CHANNELS 1 Zrotation
										End Site
										{
											OFFSET 0.023 -0 -0
										}
									}
								}
							}
							JOINT L5ProxPhalanx
							{
								OFFSET 0.0675499 -0.001644 -0.039
								CHANNELS 2 Yrotation Zrotation
								JOINT L5MidPhalanx
								{
									OFFSET 0.04 0 0
									CHANNELS 1 Zrotation
									JOINT L5DistPhalanx
									{
										OFFSET 0.021 0 0
										CHANNELS 1 Zrotation
										End Site
										{
											OFFSET 0.022 -0 -0
										}
									}
								}
							}
						}
					}
				}
			}
			JOINT Right_Collar
			{
				OFFSET -0.02282 0.250342 0.017193
				CHANNELS 2 Yrotation Zrotation
				JOINT Right_Shoulder
				{
					OFFSET -0.15421 0 0
					CHANNELS 3 Xrotation Yrotation Zrotation
					JOINT Right_Forearm
					{
						OFFSET -0.265212 0 0
						CHANNELS 2 Yrotation Xrotation
						JOINT Right_Hand
						{
							OFFSET -0.27571 3e-006 0
							CHANNELS 2 Zrotation Yrotation
							JOINT R1ProxPhalanx
							{
								OFFSET -0.014142 0.001733 0.014142
								CHANNELS 3 Yrotation Zrotation Xrotation
								JOINT R1MidPhalanx
								{
									OFFSET -0.04 0 0
									CHANNELS 1 Zrotation
									JOINT R1DistPhalanx
									{
										OFFSET -0.035 0 0
										CHANNELS 1 Zrotation
										End Site
										{
											OFFSET -0.029 -0 -0
										}
									}
								}
							}
							JOINT R2ProxPhalanx
							{
								OFFSET -0.0821037 0.001578 0.0219996
								CHANNELS 2 Yrotation Zrotation
								JOINT R2MidPhalanx
								{
									OFFSET -0.04 0 0
									CHANNELS 1 Zrotation
									JOINT R2DistPhalanx
									{
										OFFSET -0.028 0 0
										CHANNELS 1 Zrotation
										End Site
										{
											OFFSET -0.02 -0 -0
										}
									}
								}
							}
							JOINT R3ProxPhalanx
							{
								OFFSET -0.083 0 0
								CHANNELS 2 Yrotation Zrotation
								JOINT R3MidPhalanx
								{
									OFFSET -0.053 0 0
									CHANNELS 1 Zrotation
									JOINT R3DistPhalanx
									{
										OFFSET -0.03 0 0
										CHANNELS 1 Zrotation
										End Site
										{
											OFFSET -0.023 -0 -0
										}
									}
								}
							}
							JOINT R4ProxPhalanx
							{
								OFFSET -0.077274 -0.000761 -0.0207055
								CHANNELS 2 Yrotation Zrotation
								JOINT R4MidPhalanx
								{
									OFFSET -0.05 0 0
									CHANNELS 1 Zrotation
									JOINT R4DistPhalanx
									{
										OFFSET -0.03 0 0
										CHANNELS 1 Zrotation
										End Site
										{
											OFFSET -0.023 -0 -0
										}
									}
								}
							}
							JOINT R5ProxPhalanx
							{
								OFFSET -0.0675499 -0.001644 -0.039
								CHANNELS 2 Yrotation Zrotation
								JOINT R5MidPhalanx
								{
									OFFSET -0.04 0 0
									CHANNELS 1 Zrotation
									JOINT R5DistPhalanx
									{
										OFFSET -0.021 0 0
										CHANNELS 1 Zrotation
										End Site
										{
											OFFSET -0.022 -0 -0
										}
									}
								}
							}
						}
					}
				}
			}
		}
	}
	JOINT Left_Thigh
	{
		OFFSET 0.1118 -0.1612 -0.0442
		CHANNELS 3 Xrotation Zrotation Yrotation
		JOINT Left_Shin
		{
			OFFSET 0 -0.477856 0
			CHANNELS 1 Xrotation
			JOINT Left_Foot
			{
				OFFSET 0 -0.431952 0
				CHANNELS 2 Xrotation Zrotation
				JOINT Left_Toe
				{
					OFFSET 0 -0.0442 0.119
					CHANNELS 1 Xrotation
					End Site
					{
						OFFSET -0 -0 0.07
					}
				}
			}
		}
	}
	JOINT Right_Thigh
	{
		OFFSET -0.1118 -0.1612 -0.0442
		CHANNELS 3 Xrotation Zrotation Yrotation
		JOINT Right_Shin
		{
			OFFSET 0 -0.477856 0
			CHANNELS 1 Xrotation
			JOINT Right_Foot
			{
				OFFSET 0 -0.431952 0
				CHANNELS 2 Xrotation Zrotation
				JOINT Right_Toe
				{
					OFFSET 0 -0.0442 0.119
					CHANNELS 1 Xrotation
					End Site
					{
						OFFSET -0 -0 0.07
					}
				}
			}
		}
	}
}
MOTION
Frames: 8
Frame Time: 0.009975
-0.101359 -0.0603094 0.0606434 -6.07534e-013 1.21561e-007 -5.10821e-006 0 0 0 0 0 0 0 0 0 0 0 0 0 0 -0 0 -0 0 0 0 0 -37.9386 -28.008 73.698 -26.2405 -28.4472 -13.118 -18.2167 -29.0248 -19.6359 -0 -22.4358 -32.6146 -28.1246 8.63175 -30.7051 -32.2053 -23.7634 7.83088 -26.7354 -35.1526 -30.0193 0 0 -0 0 -0 0 0 0 0 37.9386 28.008 73.698 26.2405 28.4472 13.118 18.2167 29.0248 19.6359 0 22.4358 32.6146 28.1246 -8.63175 30.7051 32.2053 23.7634 -7.83088 26.7354 35.1526 30.0193 1.35182 -0.657525 -0.0155161 0.0240216 -1.37575 0.657713 0 1.36322 -0.657522 -0.015647 1.70755e-006 -1.36314 0.657713 0 
-0.101359 -0.0603094 0.0606434 -6.07534e-013 1.21561e-007 -5.10821e-006 0 0 0 0 0 0 0 0 0 0 0 0 0 0 -0 0 -0 0 0 0 0 -37.9386 -28.008 73.698 -26.2405 -28.4472 -13.118 -18.2167 -29.0248 -19.6359 -0 -22.4358 -32.6146 -28.1246 8.63175 -30.7051 -32.2053 -23.7634 7.83088 -26.7354 -35.1526 -30.0193 0 0 -0 0 -0 0 0 0 0 37.9386 28.008 73.698 26.2405 28.4472 13.118 18.2167 29.0248 19.6359 0 22.4358 32.6146 28.1246 -8.63175 30.7051 32.2053 23.7634 -7.83088 26.7354 35.1526 30.0193 1.35182 -0.657525 -0.0155161 0.0240216 -1.37575 0.657713 0 1.36322 -0.657522 -0.015647 1.70755e-006 -1.36314 0.657713 0 
-0.10142 -0.0602949 0.0599914 5.23342e-013 1.179e-007 -5.08275e-006 0 -0 0 0 -0 0 0 -0 0 -0.710292 0.291137 -9.06848e-006 0.0142337 -3.91932 29.1662 -13.0694 -69.9989 -80.1362 0.0125796 0.0164328 -0.0185512 -38.0242 -27.9889 73.7272 -26.2843 -28.4049 -13.0576 -18.2754 -29.0797 -19.6127 0 -22.4836 -32.6516 -28.0739 8.5961 -30.7115 -32.2443 -23.7346 7.82173 -26.7217 -35.1468 -29.9692 -0.0142337 3.91932 29.1662 13.0694 69.9989 80.1362 0.0125796 -0.0164328 0.0185512 38.0242 27.9889 73.7272 26.2843 28.4049 13.0576 18.2754 29.0797 19.6127 0 22.4836 32.6516 28.0739 -8.5961 30.7115 32.2443 23.7346 -7.82173 26.7217 35.1468 29.9692 1.3108 -0.653695 -0.0149951 0.0239015 -1.33462 0.653872 0 1.32215 -0.653692 -0.0151249 1.69901e-006 -1.32207 0.653872 0 
-0.10135 -0.0603083 0.0605908 5.25999e-013 1.18492e-007 -5.10829e-006 0 -0 0 0 -0 0 0 -0 0 -0.714191 0.291466 2.47297e-011 0.0143052 -3.93902 30.5933 -11.2117 -67.375 -82.712 0.012632 0.0165153 -0.0186445 -37.9386 -28.008 73.698 -26.2405 -28.4472 -13.118 -18.2167 -29.0248 -19.6359 0 -22.4358 -32.6146 -28.1246 8.63175 -30.7051 -32.2053 -23.7634 7.83088 -26.7354 -35.1526 -30.0193 -0.0143052 3.93902 30.5933 11.2117 67.375 82.712 0.012632 -0.0165153 0.0186445 37.9386 28.008 73.698 26.2405 28.4472 13.118 18.2167 29.0248 19.6359 0 22.4358 32.6146 28.1246 -8.63175 30.7051 32.2053 23.7634 -7.83088 26.7354 35.1526 30.0193 1.34851 -0.658096 -0.0154915 0.0240216 -1.37244 0.658284 0 1.35991 -0.658093 -0.0156225 1.28066e-008 -1.35982 0.658284 0 
-0.10135 -0.0603093 0.0606338 -1.55211e-013 1.21287e-007 -5.10822e-006 0 -0 0 0 -0 0 0 -0 0 -0.714228 0.291453 1.0599e-014 0.0143052 -3.93902 30.6025 -11.1972 -67.3563 -82.7284 0.012632 0.0165153 -0.0186445 -37.9386 -28.008 73.698 -26.2405 -28.4472 -13.118 -18.2167 -29.0248 -19.6359 0 -22.4358 -32.6146 -28.1246 8.63175 -30.7051 -32.2053 -23.7634 7.83088 -26.7354 -35.1526 -30.0193 -0.0143052 3.93902 30.6025 11.1972 67.3563 82.7284 0.012632 -0.0165153 0.0186445 37.9386 28.008 73.698 26.2405 28.4472 13.118 18.2167 29.0248 19.6359 0 22.4358 32.6146 28.1246 -8.63175 30.7051 32.2053 23.7634 -7.83088 26.7354 35.1526 30.0193 1.35122 -0.658118 -0.0155232 0.0240216 -1.37515 0.658306 0 1.36262 -0.658114 -0.0156542 0 -1.36253 0.658306 0 
-0.10135 -0.0603093 0.0606346 -1.71454e-014 1.2151e-007 -5.10822e-006 0 -0 0 0 -0 0 0 -0 0 -0.714228 0.291453 -0 0.0143052 -3.93902 30.6025 -11.1972 -67.3563 -82.7284 0.012632 0.0165153 -0.0186445 -37.9386 -28.008 73.698 -26.2405 -28.4472 -13.118 -18.2167 -29.0248 -19.6359 0 -22.4358 -32.6146 -28.1246 8.63175 -30.7051 -32.2053 -23.7634 7.83088 -26.7354 -35.1526 -30.0193 -0.0143052 3.93902 30.6025 11.1972 67.3563 82.7284 0.012632 -0.0165153 0.0186445 37.9386 28.008 73.698 26.2405 28.4472 13.118 18.2167 29.0248 19.6359 0 22.4358 32.6146 28.1246 -8.63175 30.7051 32.2053 23.7634 -7.83088 26.7354 35.1526 30.0193 1.35127 -0.658118 -0.0155237 0.0240216 -1.3752 0.658306 0 1.36267 -0.658115 -0.0156547 2.38465e-006 -1.36258 0.658306 0 
-0.10135 -0.0603093 0.0606346 3.81219e-013 1.21512e-007 -5.10822e-006 0 -0 0 0 -0 0 0 -0 0 -0.714229 0.291453 -0 0.0143052 -3.93902 30.6025 -11.1972 -67.3563 -82.7284 0.012632 0.0165153 -0.0186445 -37.9386 -28.008 73.698 -26.2405 -28.4472 -13.118 -18.2167 -29.0248 -19.6359 0 -22.4358 -32.6146 -28.1246 8.63175 -30.7051 -32.2053 -23.7634 7.83088 -26.7354 -35.1526 -30.0193 -0.0143052 3.93902 30.6025 11.1972 67.3563 82.7284 0.012632 -0.0165153 0.0186445 37.9386 28.008 73.698 26.2405 28.4472 13.118 18.2167 29.0248 19.6359 0 22.4358 32.6146 28.1246 -8.63175 30.7051 32.2053 23.7634 -7.83088 26.7354 35.1526 30.0193 1.35127 -0.658118 -0.0155237 0.0240216 -1.3752 0.658306 0 1.36267 -0.658115 -0.0156547 2.41484e-006 -1.36258 0.658306 0 
-0.10135 -0.0603093 0.0606346 -2.18713e-013 1.21512e-007 -5.10822e-006 0 -0 0 0 -0 0 0 -0 0 -0.714229 0.291453 -0 0.0143052 -3.93902 30.6025 -11.1972 -67.3563 -82.7284 0.012632 0.0165153 -0.0186445 -37.9386 -28.008 73.698 -26.2405 -28.4472 -13.118 -18.2167 -29.0248 -19.6359 0 -22.4358 -32.6146 -28.1246 8.63175 -30.7051 -32.2053 -23.7634 7.83088 -26.7354 -35.1526 -30.0193 -0.0143052 3.93902 30.6025 11.1972 67.3563 82.7284 0.012632 -0.0165153 0.0186445 37.9386 28.008 73.698 26.2405 28.4472 13.118 18.2167 29.0248 19.6359 0 22.4358 32.6146 28.1246 -8.63175 30.7051 32.2053 23.7634 -7.83088 26.7354 35.1526 30.0193 1.35127 -0.658118 -0.0155237 0.0240216 -1.3752 0.658306 0 1.36267 -0.658115 -0.0156547 4.95538e-008 -1.36258 0.658306 0 
